<?xml version="1.0" standalone="no"?>
<!DOCTYPE svg PUBLIC "-//W3C//DTD SVG 20010904//EN"
 "http://www.w3.org/TR/2001/REC-SVG-20010904/DTD/svg10.dtd">
<svg version="1.0" xmlns="http://www.w3.org/2000/svg"
 width="717.000000pt" height="573.000000pt" viewBox="0 0 717.000000 573.000000"
 preserveAspectRatio="xMidYMid meet">
<metadata>
Created by potrace 1.16, written by Peter Selinger 2001-2019
</metadata>
<g transform="translate(0.000000,573.000000) scale(0.100000,-0.100000)"
fill="#9a67e7" stroke="none">
<path d="M3541 5649 c-115 -12 -293 -53 -414 -96 -640 -222 -1119 -788 -1233
-1457 -22 -127 -29 -390 -15 -512 102 -864 749 -1534 1602 -1659 138 -20 390
-20 528 1 703 103 1283 583 1510 1250 279 819 -32 1712 -760 2184 -355 230
-790 333 -1218 289z m470 -339 c88 -63 101 -245 26 -357 -45 -67 -88 -93 -153
-93 -98 0 -153 76 -154 210 0 156 101 280 214 265 21 -3 51 -15 67 -25z m536
-1 c112 -42 165 -215 113 -368 -57 -169 -185 -284 -320 -285 -131 -1 -209 92
-210 251 -1 167 93 323 234 389 55 26 134 32 183 13z m-992 -53 c71 -30 125
-153 110 -249 -4 -23 -18 -65 -31 -94 -31 -64 -73 -93 -138 -93 -39 0 -52 6
-85 36 -55 49 -74 104 -70 202 3 66 9 86 34 127 31 49 82 85 123 85 12 0 38
-6 57 -14z m-382 -145 c87 -57 124 -209 76 -308 -24 -50 -61 -73 -117 -73 -88
0 -162 99 -162 218 0 77 28 145 68 167 38 20 102 18 135 -4z m-306 -270 c96
-44 142 -199 81 -277 -79 -100 -238 8 -238 161 0 56 21 100 58 119 35 20 49
19 99 -3z m1003 -76 c218 -33 365 -117 427 -244 25 -51 28 -66 27 -161 0 -119
-28 -219 -89 -322 l-33 -57 88 6 c211 14 370 -69 452 -234 40 -83 50 -200 23
-303 -18 -71 -92 -230 -106 -230 -5 0 -1 17 10 38 61 120 68 280 16 385 -55
110 -173 195 -304 218 -121 22 -266 -24 -404 -129 -37 -29 -72 -52 -76 -52 -4
0 -16 10 -27 22 -36 41 -168 119 -238 141 -321 101 -613 -161 -531 -476 45
-172 193 -356 515 -637 262 -229 295 -275 295 -421 0 -78 -3 -90 -30 -134 -36
-57 -79 -82 -169 -97 -148 -25 -286 47 -402 208 -152 211 -332 783 -419 1329
-25 157 -31 469 -11 584 71 407 296 576 771 580 66 0 163 -6 215 -14z m194
-1191 c12 -12 16 -38 16 -115 l0 -99 105 0 c93 0 105 -2 115 -19 13 -26 13
-276 0 -302 -10 -17 -22 -19 -115 -19 l-105 0 0 -96 c0 -140 8 -134 -170 -134
-183 0 -180 -2 -180 137 l0 93 -98 0 c-63 0 -102 4 -110 12 -17 17 -17 299 0
316 8 8 47 12 110 12 l98 0 0 93 c0 139 -2 137 175 137 117 0 146 -3 159 -16z"/>
<path d="M6560 2997 c0 -37 -95 -343 -147 -472 -140 -352 -295 -596 -527 -833
-182 -186 -351 -309 -582 -425 -530 -265 -1200 -343 -2023 -236 -84 11 -155
18 -157 16 -8 -8 358 -103 530 -138 271 -54 410 -70 663 -76 250 -6 410 5 605
43 429 83 765 259 1043 545 299 308 485 702 564 1199 23 139 45 379 36 388 -3
3 -5 -2 -5 -11z"/>
<path d="M6022 2770 c-319 -491 -810 -831 -1422 -986 -295 -74 -564 -104 -940
-105 -428 0 -793 39 -1320 142 -500 97 -824 72 -1056 -83 -71 -47 -145 -126
-188 -200 l-20 -33 41 33 c127 100 345 142 641 122 78 -5 159 -12 179 -15 215
-29 310 -43 573 -86 168 -27 377 -61 465 -74 932 -141 1556 -96 2060 150 215
105 366 216 540 396 147 152 240 280 352 484 60 109 168 343 162 349 -2 2 -32
-40 -67 -94z"/>
<path d="M780 1374 c-105 -14 -227 -38 -318 -65 -110 -31 -266 -88 -259 -95 2
-2 37 3 78 11 124 26 373 30 527 11 343 -44 622 -140 1347 -464 209 -93 460
-202 557 -241 930 -374 1613 -405 2371 -109 71 28 127 52 125 54 -2 2 -37 -6
-78 -16 -207 -54 -310 -65 -610 -65 -298 0 -365 6 -605 52 -429 82 -753 192
-1455 497 -496 216 -652 277 -870 341 -219 63 -370 86 -585 90 -104 2 -206 1
-225 -1z"/>
</g>
</svg>
